# xmcd
#
# Track frame offsets:
#	150
#	24158
#	38337
#	57845
#	78206
#	90255
#	104082
#	120536
#	139321
#	174585
#	188945
#	205057
#	223193
#	245609
#	262215
#	283164
#	303997
#	322576
#
# Disc length: 4648 seconds
#
# Revision: 1
# Processed by: cddbd v1.5.2PL0 Copyright (c) Steve Scherf et al.
# Submitted via: EZCDAudioConverter 7.0.6.1
#
DISCID=f8122612
DTITLE=I'm A Freak 2 Baby 3/3
DYEAR=2019
DGENRE=
TTITLE0=High Tide - Futilist's Lament
TTITLE1=Lightyears Away - Yesterday
TTITLE2=Samuel Prody - Woman
TTITLE3=Eugene Carnan - Confusion
TTITLE4=Hard Horse - So Long I'm Moving On
TTITLE5=The Crazy World Of Arthur Brown - Fire! [Demo]
TTITLE6=Tarsus - Early Morning Sun
TTITLE7=Natural Gas - Is There Any Doubt?
TTITLE8=Warhorse - Back In Time
TTITLE9=Little Big Horn - Name Of The Game
TTITLE10=Bullet - Sinister Minister
TTITLE11=Frozen Tear - I Need Someone
TTITLE12=Sardonicus - The Nymph
TTITLE13=9.30 Fly - Hoochie Coochie Man
TTITLE14=Clark-Hutchinson - Someone's Been At My Woman
TTITLE15=Stone The Crows - Big Jim Salter
TTITLE16=Thor - Paranoid
TTITLE17=Writing On The Wall - Lucifer Corpus
EXTD=
EXTT0=
EXTT1=
EXTT2=
EXTT3=
EXTT4=
EXTT5=
EXTT6=
EXTT7=
EXTT8=
EXTT9=
EXTT10=
EXTT11=
EXTT12=
EXTT13=
EXTT14=
EXTT15=
EXTT16=
EXTT17=
PLAYORDER=
